<?xml version="1.0" standalone="no"?><!DOCTYPE svg PUBLIC "-//W3C//DTD SVG 1.1//EN" "http://www.w3.org/Graphics/SVG/1.1/DTD/svg11.dtd"><svg t="1687621344575" class="icon" viewBox="0 0 1024 1024" version="1.1" xmlns="http://www.w3.org/2000/svg" p-id="8750" xmlns:xlink="http://www.w3.org/1999/xlink" width="200" height="200"><path d="M921.6 486.4c-6.4 0-16-3.2-22.4-6.4L512 176 121.6 480c-16 12.8-38.4 9.6-51.2-6.4-12.8-16-9.6-38.4 6.4-51.2L489.6 99.2c12.8-9.6 32-9.6 44.8 0l412.8 323.2c16 12.8 19.2 35.2 6.4 51.2-9.6 9.6-19.2 12.8-32 12.8z" fill="#19AA8D" p-id="8751"></path><path d="M220.8 953.6c-19.2 0-35.2-16-35.2-35.2V364.8c0-19.2 16-35.2 35.2-35.2s35.2 12.8 35.2 35.2v553.6c0 19.2-16 35.2-35.2 35.2zM800 953.6c-19.2 0-35.2-16-35.2-35.2V364.8c0-19.2 16-35.2 35.2-35.2 19.2 0 35.2 16 35.2 35.2v553.6c0 19.2-16 35.2-35.2 35.2z" fill="#19AA8D" p-id="8752"></path><path d="M924.8 956.8H102.4c-9.6 0-19.2-9.6-19.2-19.2s9.6-19.2 19.2-19.2h819.2c9.6 0 19.2 9.6 19.2 19.2s-6.4 19.2-16 19.2zM652.8 540.8h-291.2c-9.6 0-19.2-9.6-19.2-19.2s9.6-19.2 19.2-19.2h291.2c9.6 0 19.2 9.6 19.2 19.2s-9.6 19.2-19.2 19.2z" fill="#19AA8D" p-id="8753"></path><path d="M467.2 873.6h-76.8c-9.6 0-16-6.4-16-16v-76.8c0-9.6 6.4-16 16-16h76.8c9.6 0 16 6.4 16 16v76.8c0 9.6-6.4 16-16 16zM636.8 873.6h-76.8c-9.6 0-16-6.4-16-16v-76.8c0-9.6 6.4-16 16-16h76.8c9.6 0 16 6.4 16 16v76.8c0 9.6-6.4 16-16 16zM467.2 704h-76.8c-9.6 0-16-6.4-16-16v-76.8c0-9.6 6.4-16 16-16h76.8c9.6 0 16 6.4 16 16v76.8c0 6.4-6.4 16-16 16z" fill="#F8AC59" p-id="8754"></path></svg>